HIERARCHY
ROOT Hips
{
	OFFSET 0.000000 0.000000 0.000000 
	CHANNELS 6 Xposition Yposition Zposition Yrotation Zrotation Xrotation 
	JOINT Lumbar
	{
		OFFSET 0.000000 0.000000 0.000000 
		CHANNELS 3 Zrotation Xrotation Yrotation
		JOINT Neck
		{
			OFFSET 0.000000 0.445665 0.000000 
			CHANNELS 3 Zrotation Xrotation Yrotation
			End Site
			{
				OFFSET 0.000000 0.227535 0.000000 
			}
		}
		JOINT RightShoulder
		{
			OFFSET 0.019635 0.377685 0.194865 
			CHANNELS 3 Zrotation Xrotation Yrotation
			JOINT RightElbow
			{
				OFFSET 0.000000 -0.243375 0.000000 
				CHANNELS 2 Zrotation Yrotation
				JOINT RightWrist
				{
					OFFSET 0.000000 -0.264825 0.000000 
					CHANNELS 2 Zrotation Xrotation
					End Site
					{
						OFFSET 0.006600 -0.176220 0.000990 
					}
				}
			}
		}
		JOINT LeftShoulder
		{
			OFFSET 0.019635 0.377685 -0.194865 
			CHANNELS 3 Zrotation Xrotation Yrotation
			JOINT LeftElbow
			{
				OFFSET 0.000000 -0.243375 0.000000 
				CHANNELS 2 Zrotation Yrotation
				JOINT LeftWrist
				{
					OFFSET 0.000000 -0.264825 0.000000 
					CHANNELS 2 Zrotation Xrotation
					End Site
					{
						OFFSET 0.006600 -0.176220 -0.000990 
					}
				}
			}
		}
	}
	JOINT RightHip
	{
		OFFSET 0.052140 -0.069960 0.075570 
		CHANNELS 3 Zrotation Xrotation Yrotation
		JOINT RightKnee
		{
			OFFSET 0.000000 -0.402270 0.000000 
			CHANNELS 1 Zrotation
			JOINT RightAnkle
			{
				OFFSET 0.000000 -0.404085 0.000000 
				CHANNELS 3 Zrotation Xrotation Yrotation
				End Site
				{
					OFFSET 0.204105 -0.089430 0.008415 
				}
			}
		}
	}
	JOINT LeftHip
	{
		OFFSET 0.052140 -0.069960 -0.075570 
		CHANNELS 3 Zrotation Xrotation Yrotation
		JOINT LeftKnee
		{
			OFFSET 0.000000 -0.402270 0.000000 
			CHANNELS 1 Zrotation
			JOINT LeftAnkle
			{
				OFFSET 0.000000 -0.404085 0.000000 
				CHANNELS 3 Zrotation Xrotation Yrotation
				End Site
				{
					OFFSET 0.204105 -0.089430 -0.008415 
				}
			}
		}
	}
}
MOTION
Frames: 31
Frame Time: 0.02
-0.00044 -0.00022 -0.00019 27.85469 -17.72291 -3.57345 43.38126 -0.69559 -7.21153 -13.97585 2.5029 -1.10752 -22.94254 -4.50213 -12.63247 25.92981 93.62544 6.92985 1.71543 -25.97993 7.87661 -1.56194 30.42768 -72.8576 4.43514 3.19566 29.70561 -2.31927 -4.7496 -20.23497 -6.50534 -3.39685 -3.88908 33.5811 3.81224 8.21938 -24.31539 -6.82175 1.45801 2.96237
-0.00016 -0.00017 0.00012 27.78798 -17.73887 -3.56846 43.39906 -0.69346 -7.22105 -13.94425 2.51704 -1.10811 -23.00458 -4.55503 -12.40604 26.0652 93.59634 6.92812 1.71744 -26.12164 7.67711 -0.89733 30.70727 -79.06793 6.40731 2.13164 29.7163 -2.3865 -5.24566 -20.23523 -6.48254 -3.34984 -3.86226 33.59631 3.80362 8.06704 -24.31871 -6.82191 1.48061 2.97351
0.00012 -0.00011 0.00043 27.7214 -17.75478 -3.56348 43.41689 -0.69135 -7.23052 -13.91284 2.53116 -1.1087 -23.06664 -4.60782 -12.18015 26.20045 93.56784 6.92654 1.71949 -26.26358 7.47846 -0.23547 30.98686 -85.25684 8.37282 1.0714 29.72692 -2.45354 -5.74053 -20.23548 -6.4598 -3.30296 -3.83551 33.61144 3.7951 7.91534 -24.32203 -6.82207 1.50312 2.98461
0.00039 -5e-05 0.00073 27.65488 -17.7707 -3.5585 43.43466 -0.68923 -7.24001 -13.88135 2.54526 -1.10929 -23.12853 -4.66058 -11.95432 26.33549 93.53858 6.92474 1.72144 -26.40497 7.2796 0.42698 31.26576 -91.44782 10.33887 0.01072 29.73758 -2.52057 -6.23513 -20.23573 -6.43707 -3.2561 -3.80876 33.62661 3.78652 7.76351 -24.32534 -6.82223 1.52564 2.99571
0.00067 1e-05 0.00104 27.58827 -17.78666 -3.55352 43.45236 -0.6871 -7.24955 -13.84968 2.55936 -1.10988 -23.19029 -4.7134 -11.7282 26.47048 93.50943 6.92298 1.7235 -26.54584 7.07983 1.09244 31.54423 -97.66065 12.31164 -1.05389 29.7483 -2.58775 -6.73077 -20.23599 -6.41428 -3.20913 -3.78196 33.64187 3.77781 7.61092 -24.32867 -6.82239 1.54825 3.00686
0.00095 7e-05 0.00135 27.52175 -17.80243 -3.54855 43.47046 -0.68502 -7.25887 -13.81882 2.57351 -1.11047 -23.25298 -4.76609 -11.50294 26.60624 93.48282 6.92193 1.7256 -26.68997 6.88353 1.74671 31.82609 -103.7987 14.26171 -2.10484 29.75869 -2.6545 -7.22394 -20.23623 -6.39165 -3.16241 -3.75531 33.65668 3.76967 7.46107 -24.33196 -6.82256 1.57058 3.01786
0.00123 0.00013 0.00166 27.45512 -17.81862 -3.54355 43.48775 -0.68284 -7.26864 -13.78629 2.58756 -1.11105 -23.31379 -4.81909 -11.27566 26.74047 93.44874 6.91881 1.72721 -26.82749 6.68046 2.4227 32.1011 -110.08116 16.25554 -3.18219 29.76979 -2.72207 -7.72164 -20.2365 -6.36874 -3.11525 -3.72838 33.67246 3.76042 7.30603 -24.33532 -6.82271 1.59342 3.02913
0.00151 0.00019 0.00196 27.38861 -17.83432 -3.53858 43.50578 -0.68076 -7.27796 -13.75542 2.60171 -1.11164 -23.37621 -4.8716 -11.05124 26.87583 93.42592 6.91877 1.73003 -26.97093 6.48362 3.07878 32.38191 -116.22918 18.20859 -4.23507 29.78012 -2.78884 -8.21498 -20.23675 -6.34607 -3.0685 -3.70171 33.68722 3.75214 7.15549 -24.33862 -6.82287 1.61582 3.04017
0.0018 0.00024 0.00227 27.32213 -17.84983 -3.53364 43.52474 -0.67878 -7.28686 -13.72612 2.61596 -1.11226 -23.44115 -4.92438 -10.82625 27.01377 93.39957 6.91784 1.73133 -27.12249 6.29439 3.71024 32.67213 -122.22007 20.11423 -5.25889 29.78999 -2.85484 -8.70397 -20.23693 -6.32372 -3.02223 -3.67532 33.70124 3.74527 7.01154 -24.34183 -6.82308 1.63758 3.05086
0.00206 0.0003 0.00259 27.25511 -17.86765 -3.5285 43.53842 -0.67614 -7.29859 -13.6864 2.62956 -1.11275 -23.49324 -4.97821 -10.59229 27.14047 93.34155 6.90804 1.73234 -27.23001 6.06138 4.48251 32.91521 -129.13685 22.30004 -6.45249 29.80398 -2.92589 -9.22097 -20.2374 -6.29961 -2.97309 -3.64721 33.721 3.73096 6.83295 -24.34551 -6.82311 1.66273 3.06337
0.00237 0.00036 0.00288 27.18947 -17.87984 -3.52381 43.56321 -0.67493 -7.30407 -13.66957 2.64457 -1.1135 -23.57138 -5.02814 -10.38512 27.28856 93.38351 6.92587 1.73975 -27.42863 5.92073 4.95825 33.25316 -134.08604 23.88994 -7.28619 29.80831 -2.9859 -9.67687 -20.23731 -6.2792 -2.93009 -3.62281 33.7277 3.73191 6.72533 -24.34822 -6.82346 1.68092 3.07215
0.00278 0.00044 0.00311 27.12594 -17.88284 -3.52021 43.61907 -0.67749 -7.2947 -13.70859 2.66319 -1.11496 -23.7296 -5.08236 -10.18408 27.51436 93.40973 6.9416 1.71385 -27.89384 6.03593 4.60843 33.8912 -133.70553 23.86997 -7.13744 29.79397 -3.01843 -9.98035 -20.23547 -6.26901 -2.90336 -3.60817 33.70614 3.77885 6.83207 -24.34805 -6.82521 1.67809 3.06972
0.00324 0.00051 0.00331 27.06423 -17.87917 -3.51708 43.68601 -0.68155 -7.27872 -13.7718 2.68323 -1.11668 -23.91172 -5.13073 -10.01999 27.75753 93.57559 6.99556 1.70137 -28.44669 6.24337 3.96358 34.61663 -131.34072 23.24833 -6.62698 29.76865 -3.03939 -10.21986 -20.23313 -6.26253 -2.88289 -3.59735 33.67023 3.84039 7.00666 -24.34693 -6.82719 1.66859 3.06372
0.0037 0.00059 0.00352 27.00265 -17.8743 -3.51381 43.74744 -0.68499 -7.26419 -13.82864 2.70285 -1.11827 -24.07812 -5.1709 -9.88611 27.98106 93.88558 7.08796 1.71909 -28.94959 6.40708 3.46083 35.27674 -129.83306 22.88364 -6.27784 29.74304 -3.06371 -10.47842 -20.23117 -6.25429 -2.8599 -3.58507 33.63569 3.89248 7.13709 -24.34637 -6.82871 1.66344 3.06001
0.00409 0.00066 0.00377 26.93659 -17.88671 -3.51025 43.81073 -0.68802 -7.25586 -13.86641 2.72173 -1.1199 -24.26777 -5.25343 -9.56393 28.25661 93.37932 6.96114 1.59363 -29.49856 6.5788 2.92144 36.0472 -128.49205 22.58149 -5.93824 29.73901 -3.09581 -10.77831 -20.22853 -6.24635 -2.83552 -3.57162 33.6221 3.95628 7.32296 -24.3453 -6.83171 1.65284 3.05353
0.00462 0.00074 0.00393 26.88086 -17.86224 -3.50738 43.87297 -0.69241 -7.23346 -13.94913 2.74224 -1.12153 -24.41127 -5.25071 -9.6301 28.42495 94.53125 7.27953 1.757 -29.96839 6.75548 2.39116 36.6059 -126.35586 22.0138 -5.49635 29.68831 -3.10923 -10.978 -20.22725 -6.23869 -2.81559 -3.56153 33.56242 3.99941 7.41064 -24.34504 -6.83172 1.65185 3.05189
0.00552 0.00083 0.00389 26.84881 -17.73233 -3.50653 43.9267 -0.69879 -7.17046 -14.15296 2.76893 -1.12306 -24.44921 -4.97619 -10.86643 28.32196 100.88415 8.99702 2.82463 -30.22994 6.92618 1.93354 36.58402 -122.32252 20.79742 -4.8331 29.50495 -3.07178 -10.90868 -20.22928 -6.23074 -2.80554 -3.55949 33.37211 3.97968 7.19988 -24.34777 -6.82311 1.68047 3.06509
0.00655 0.00091 0.00379 26.82827 -17.56695 -3.50636 43.97879 -0.70672 -7.09418 -14.39972 2.79683 -1.12465 -24.43384 -4.62282 -12.47141 28.10767 108.78762 11.13039 4.16341 -30.40172 7.09911 1.49816 36.34371 -117.59092 19.34533 -4.08445 29.27695 -3.0164 -10.74281 -20.23284 -6.22297 -2.79987 -3.56073 33.13812 3.9391 6.88996 -24.35141 -6.81157 1.71865 3.08312
0.00751 0.001 0.00372 26.8049 -17.42069 -3.50566 44.03448 -0.71486 -7.02615 -14.6261 2.82287 -1.1262 -24.42582 -4.33082 -13.83874 27.92201 115.53902 12.95259 5.30406 -30.59527 7.26782 1.07127 36.18348 -113.30482 18.04387 -3.39322 29.07273 -2.97059 -10.62564 -20.23599 -6.21521 -2.79278 -3.56067 32.92748 3.90945 6.63237 -24.35408 -6.80151 1.75161 3.09857
0.00853 0.00109 0.0036 26.76997 -17.25973 -3.50567 44.08156 -0.71925 -6.9484 -14.86079 2.85452 -1.12764 -24.49344 -3.93218 -15.50726 27.81892 124.14625 15.28121 6.75539 -30.87696 7.4492 0.56314 36.09712 -108.41669 16.54235 -2.61154 28.85039 -2.91816 -10.48348 -20.23771 -6.20717 -2.78361 -3.56 32.69779 3.87397 6.34631 -24.35842 -6.79071 1.78833 3.11567
0.00943 0.00116 0.00358 26.76368 -17.12333 -3.50466 44.1422 -0.73174 -6.88802 -15.08327 2.87469 -1.12954 -24.38607 -3.73529 -16.63066 27.53063 129.30199 16.66675 7.63141 -30.94662 7.60863 0.22384 35.81668 -104.63202 15.40358 -2.00171 28.65909 -2.87566 -10.37427 -20.24305 -6.19973 -2.77958 -3.56126 32.50231 3.84571 6.09534 -24.3603 -6.78091 1.8192 3.13034
0.01007 0.00119 0.00372 26.81811 -17.04467 -3.49806 44.27352 -0.76643 -6.87722 -15.30235 2.86333 -1.13073 -23.84606 -4.13026 -16.19867 26.64861 124.1332 15.22855 6.78648 -30.50282 7.66302 0.42853 34.94861 -104.16551 15.37673 -1.89749 28.5336 -2.86268 -10.35358 -20.25591 -6.19372 -2.78998 -3.56767 32.37322 3.84063 5.9634 -24.34926 -6.77321 1.83489 3.13881
0.01054 0.0012 0.00397 26.90401 -16.99596 -3.49096 44.41235 -0.80901 -6.8846 -15.4999 2.84026 -1.13274 -23.12438 -4.72856 -15.19713 25.60837 115.51145 12.84771 5.36506 -29.83861 7.70307 0.78854 33.91553 -104.82463 15.71606 -1.96904 28.44746 -2.86068 -10.37401 -20.27287 -6.18836 -2.80521 -3.57581 32.28842 3.84387 5.87039 -24.33737 -6.76692 1.84374 3.14435
0.011 0.0012 0.00423 26.98549 -16.94528 -3.48567 44.52615 -0.84804 -6.88489 -15.6804 2.82227 -1.13568 -22.46149 -5.2231 -14.43065 24.70736 108.74486 10.97671 4.2513 -29.24248 7.77789 1.02401 33.02192 -104.91298 15.85658 -1.95534 28.36263 -2.85535 -10.39373 -20.28918 -6.18273 -2.81725 -3.58268 32.20751 3.84432 5.76041 -24.32907 -6.7608 1.85363 3.15013
0.01187 0.00127 0.00423 27.02503 -16.84229 -3.47337 44.73121 -0.88767 -6.88018 -15.97571 2.80543 -1.13314 -21.89824 -5.76102 -13.77981 23.5021 100.83584 8.78036 2.95589 -28.78012 7.7332 1.48681 31.83378 -105.22668 16.12619 -1.96127 28.19211 -2.84285 -10.33644 -20.29996 -6.1768 -2.83333 -3.59157 32.01941 3.83956 5.64336 -24.30504 -6.75089 1.87273 3.16072
0.01181 0.00119 0.00481 27.16005 -16.85822 -3.47597 44.74796 -0.92702 -6.88985 -16.02621 2.78327 -1.14217 -21.08358 -6.26015 -12.74508 22.91463 94.45287 7.02738 1.89628 -27.9862 7.93444 1.51407 31.24122 -105.34643 16.21587 -1.96901 28.21387 -2.84754 -10.44771 -20.32381 -6.17189 -2.84245 -3.59681 32.07103 3.84832 5.55235 -24.31636 -6.74958 1.87073 3.16049
0.00931 0.00075 0.00688 27.54509 -17.17243 -3.51629 44.24082 -0.97096 -6.93915 -15.40707 2.75088 -1.18341 -19.63139 -6.58315 -10.81538 23.90144 93.23443 6.7688 1.64538 -26.34523 8.8123 0.28976 32.17637 -104.67246 15.73162 -1.9409 28.72051 -2.90194 -11.03957 -20.37708 -6.16765 -2.82803 -3.58997 32.72533 3.8885 5.51671 -24.40209 -6.76884 1.81358 3.13157
0.00586 0.00016 0.00953 28.02679 -17.6078 -3.57242 43.54297 -1.01275 -7.00134 -14.54303 2.71353 -1.23618 -17.93061 -6.86368 -8.51432 25.54868 93.64308 6.97838 1.64705 -24.37581 9.93775 -1.3758 33.74637 -103.76512 15.05294 -1.90835 29.4237 -2.97232 -11.79532 -20.4441 -6.16487 -2.80702 -3.57969 33.62656 3.94267 5.50735 -24.52818 -6.7972 1.73527 3.09183
0.00277 -0.00038 0.01196 28.46728 -18.00523 -3.62342 42.93547 -1.051 -7.0551 -13.78872 2.67704 -1.2834 -16.33568 -7.17722 -6.36198 27.00478 93.22999 6.94706 1.52107 -22.54772 10.95564 -2.83294 35.13081 -102.95684 14.45588 -1.87722 30.06435 -3.03241 -12.46014 -20.50893 -6.16262 -2.79102 -3.57198 34.44935 3.99327 5.49151 -24.65065 -6.82333 1.66541 3.05659
-4e-05 -0.00084 0.01421 28.89487 -18.33927 -3.66506 42.31816 -1.10949 -7.12116 -13.03561 2.64486 -1.33199 -14.76377 -7.44164 -4.26641 27.99162 93.04609 7.0065 1.43014 -20.7457 11.95826 -4.32003 36.07754 -102.21623 13.89844 -1.85575 30.60405 -3.10616 -13.19619 -20.55803 -6.15502 -2.76656 -3.56001 35.13952 4.03299 5.45544 -24.70936 -6.84167 1.59954 3.02267
-0.00364 -0.0015 0.01697 29.37504 -18.82388 -3.73079 41.66904 -1.12409 -7.16339 -12.22801 2.60416 -1.38038 -13.08809 -7.79351 -1.98209 30.11916 92.81448 6.99458 1.3328 -18.81387 13.04394 -5.84896 38.08532 -101.2655 13.20937 -1.80946 31.38666 -3.15446 -13.82175 -20.64153 -6.15931 -2.75826 -3.55617 36.15335 4.09782 5.46531 -24.91245 -6.87811 1.52128 2.98389
